<svg width="1349" height="758" viewBox="0 0 1349 758" fill="none" xmlns="http://www.w3.org/2000/svg">
    <path d="M1003.74 229.064L1115.57 35.3817C1121.88 24.5238 1118.07 10.7311 1107.35 4.42177C1096.64 -1.8875 1082.7 1.78061 1076.53 12.6386L963.239 208.815C876.799 169.345 779.5 147.336 674.863 147.336C570.226 147.336 472.927 169.345 386.487 208.815L273.192 12.6386C266.881 1.78061 253.086 -1.8875 242.226 4.42177C231.366 10.7311 227.697 24.5238 234.008 35.3817L345.836 229.064C152.998 333.536 22.3851 528.685 0.8125 757.141H1348.92C1327.34 528.684 1196.73 333.534 1003.74 229.064ZM365.354 567.862C334.095 567.862 308.853 542.478 308.853 511.371C308.853 480.118 334.242 454.88 365.354 454.88C396.614 454.88 421.856 480.265 421.856 511.371C422.003 542.478 396.613 567.862 365.354 567.862ZM984.226 567.862C952.967 567.862 927.725 542.478 927.725 511.371C927.725 480.118 953.114 454.88 984.226 454.88C1015.49 454.88 1040.73 480.265 1040.73 511.371C1040.87 542.478 1015.49 567.862 984.226 567.862Z"
          fill="rgb(156 163 175)"/>
</svg>
