<svg width="983" height="1208" viewBox="0 0 983 1208" fill="none" xmlns="http://www.w3.org/2000/svg">
    <g clip-path="url(#clip0_16_28)">
        <path d="M951.723 411.807C944.719 417.243 821.059 486.945 821.059 641.931C821.059 821.198 978.411 884.618 983.121 886.189C982.396 890.054 958.123 973.044 900.158 1057.6C848.472 1132.02 794.491 1206.31 712.373 1206.31C630.255 1206.31 609.122 1158.59 514.324 1158.59C421.941 1158.59 389.094 1207.88 313.98 1207.88C238.867 1207.88 186.456 1139.02 126.196 1054.46C56.3957 955.166 0 800.904 0 654.494C0 419.659 152.643 295.114 302.87 295.114C382.694 295.114 449.233 347.542 499.35 347.542C547.05 347.542 621.44 291.974 712.252 291.974C746.669 291.974 870.329 295.114 951.723 411.807ZM669.14 192.555C706.697 147.98 733.265 86.1304 733.265 24.2808C733.265 15.704 732.54 7.0064 730.97 0C669.865 2.2952 597.166 40.7096 553.33 91.5664C518.913 130.706 486.79 192.555 486.79 255.25C486.79 264.673 488.36 274.095 489.085 277.115C492.949 277.84 499.229 278.686 505.508 278.686C560.334 278.686 629.289 241.962 669.14 192.555Z"
              fill="rgb(156 163 175)"/>
    </g>
    <defs>
        <clipPath id="clip0_16_28">
            <rect width="983" height="1208" fill="white"/>
        </clipPath>
    </defs>
</svg>
